<svg width="444" height="512" viewBox="0 0 444 512" fill="none" xmlns="http://www.w3.org/2000/svg">
<path d="M222 204.8C216.937 204.8 211.988 206.301 207.778 209.114C203.568 211.927 200.287 215.926 198.349 220.603C196.411 225.281 195.905 230.428 196.892 235.394C197.88 240.36 200.318 244.922 203.898 248.502C207.479 252.082 212.04 254.52 217.006 255.508C221.972 256.496 227.119 255.989 231.797 254.051C236.475 252.114 240.473 248.833 243.286 244.623C246.099 240.413 247.6 235.463 247.6 230.4C247.6 223.611 244.903 217.099 240.102 212.298C235.301 207.497 228.79 204.8 222 204.8ZM222 238.933C220.313 238.933 218.663 238.433 217.26 237.495C215.856 236.558 214.763 235.225 214.117 233.666C213.471 232.106 213.302 230.391 213.631 228.735C213.96 227.08 214.773 225.559 215.966 224.366C217.16 223.173 218.68 222.36 220.336 222.031C221.991 221.701 223.707 221.87 225.266 222.516C226.825 223.162 228.158 224.256 229.096 225.659C230.033 227.062 230.534 228.712 230.534 230.4C230.534 232.663 229.635 234.834 228.034 236.434C226.434 238.034 224.264 238.933 222 238.933Z" fill="#6984F0"/>
<path d="M222 187.733C228.775 187.696 235.292 185.133 240.277 180.545C245.263 175.958 248.357 169.675 248.956 162.927L253.948 103.014C254.317 98.5916 253.764 94.1403 252.325 89.9421C250.885 85.7438 248.591 81.8899 245.585 78.6238C242.58 75.3578 238.93 72.7507 234.866 70.9674C230.802 69.1841 226.412 68.2633 221.974 68.2633C217.536 68.2633 213.146 69.1841 209.082 70.9674C205.018 72.7507 201.368 75.3578 198.363 78.6238C195.357 81.8899 193.063 85.7438 191.623 89.9421C190.184 94.1403 189.631 98.5916 190 103.014L194.992 162.927C195.591 169.684 198.694 175.974 203.69 180.563C208.686 185.152 215.216 187.709 222 187.733ZM210.906 90.1803C213.027 87.8754 215.814 86.2906 218.879 85.6472C221.944 85.0038 225.133 85.3341 228.001 86.5919C230.869 87.8497 233.273 89.9721 234.876 92.6625C236.478 95.3529 237.201 98.4769 236.941 101.598L231.949 161.51C231.723 163.999 230.579 166.315 228.74 168.007C226.901 169.699 224.499 170.647 222 170.667C219.499 170.649 217.095 169.702 215.254 168.01C213.413 166.317 212.268 164.001 212.041 161.51L207.049 101.598C206.861 99.531 207.107 97.4477 207.771 95.4814C208.435 93.5152 209.503 91.7095 210.906 90.1803Z" fill="#6984F0"/>
<path d="M86.3195 510.293C89.1393 511.706 92.3002 512.295 95.4397 511.993C98.5791 511.692 101.57 510.511 104.069 508.587L199.309 435.2H392.666C406.241 435.186 419.256 429.788 428.855 420.189C438.454 410.59 443.853 397.575 443.866 384V179.2C443.853 165.625 438.454 152.61 428.855 143.011C419.256 133.412 406.241 128.014 392.666 128H330.091L263.591 22.895C259.15 15.8823 253.009 10.1063 245.737 6.104C238.465 2.10166 230.3 0.00292969 221.999 0.00292969C213.699 0.00292969 205.534 2.10166 198.262 6.104C190.99 10.1063 184.849 15.8823 180.408 22.895L113.908 128H51.3328C37.7579 128.014 24.7428 133.412 15.1439 143.011C5.54499 152.61 0.146367 165.625 0.132812 179.2V384C0.146367 397.575 5.54499 410.59 15.1439 420.189C24.7428 429.788 37.7579 435.186 51.3328 435.2H76.9328V495.189C76.9188 498.335 77.7921 501.421 79.4524 504.092C81.1128 506.764 83.4929 508.913 86.3195 510.293ZM194.821 32.0086C197.726 27.4302 201.74 23.6598 206.492 21.0474C211.243 18.435 216.577 17.0653 221.999 17.0653C227.422 17.0653 232.756 18.435 237.507 21.0474C242.259 23.6598 246.273 27.4302 249.178 32.0086L370.573 223.898C373.639 228.75 375.345 234.337 375.514 240.075C375.682 245.812 374.307 251.489 371.531 256.514C368.756 261.538 364.682 265.725 359.736 268.636C354.789 271.548 349.152 273.078 343.412 273.067H100.587C94.8472 273.076 89.2097 271.545 84.2637 268.632C79.3176 265.719 75.2443 261.532 72.4691 256.507C69.6939 251.482 68.3187 245.805 68.4869 240.067C68.6552 234.33 70.3608 228.742 73.4256 223.889L194.821 32.0086ZM51.3328 418.133C42.2801 418.133 33.5981 414.537 27.1969 408.136C20.7957 401.735 17.1995 393.053 17.1995 384V179.2C17.1995 170.147 20.7957 161.465 27.1969 155.064C33.5981 148.663 42.2801 145.067 51.3328 145.067H103.105L59.0128 214.767C54.316 222.201 51.7006 230.759 51.4396 239.548C51.1785 248.338 53.2813 257.036 57.5286 264.736C61.7759 272.435 68.0119 278.854 75.5859 283.321C83.1598 287.788 91.7939 290.141 100.587 290.133H343.412C352.205 290.143 360.839 287.792 368.414 283.325C375.988 278.859 382.224 272.441 386.472 264.742C390.719 257.043 392.822 248.345 392.561 239.556C392.3 230.767 389.684 222.209 384.986 214.776L340.886 145.067H392.666C401.719 145.067 410.401 148.663 416.802 155.064C423.203 161.465 426.799 170.147 426.799 179.2V384C426.799 393.053 423.203 401.735 416.802 408.136C410.401 414.537 401.719 418.133 392.666 418.133H199.309C195.54 418.133 191.876 419.382 188.89 421.683L93.9995 495.189V435.2C93.9995 430.674 92.2014 426.333 89.0008 423.132C85.8001 419.931 81.4592 418.133 76.9328 418.133H51.3328Z" fill="#263057"/>
<path d="M68.3986 332.8H93.9986C96.2617 332.8 98.4322 331.901 100.033 330.301C101.633 328.7 102.532 326.53 102.532 324.267C102.532 322.004 101.633 319.833 100.033 318.233C98.4322 316.632 96.2617 315.733 93.9986 315.733H68.3986C66.1354 315.733 63.9649 316.632 62.3646 318.233C60.7643 319.833 59.8652 322.004 59.8652 324.267C59.8652 326.53 60.7643 328.7 62.3646 330.301C63.9649 331.901 66.1354 332.8 68.3986 332.8Z" fill="#263057"/>
<path d="M298.799 358.4H273.199C270.936 358.4 268.766 359.299 267.165 360.899C265.565 362.5 264.666 364.67 264.666 366.933C264.666 369.197 265.565 371.367 267.165 372.967C268.766 374.568 270.936 375.467 273.199 375.467H298.799C301.063 375.467 303.233 374.568 304.833 372.967C306.434 371.367 307.333 369.197 307.333 366.933C307.333 364.67 306.434 362.5 304.833 360.899C303.233 359.299 301.063 358.4 298.799 358.4Z" fill="#263057"/>
<path d="M128.133 332.8H332.933C335.196 332.8 337.367 331.901 338.967 330.301C340.567 328.7 341.466 326.53 341.466 324.267C341.466 322.004 340.567 319.833 338.967 318.233C337.367 316.632 335.196 315.733 332.933 315.733H128.133C125.87 315.733 123.699 316.632 122.099 318.233C120.499 319.833 119.6 322.004 119.6 324.267C119.6 326.53 120.499 328.7 122.099 330.301C123.699 331.901 125.87 332.8 128.133 332.8Z" fill="#263057"/>
<path d="M247.599 366.933C247.599 364.67 246.7 362.5 245.099 360.899C243.499 359.299 241.328 358.4 239.065 358.4H68.3986C66.1354 358.4 63.9649 359.299 62.3646 360.899C60.7643 362.5 59.8652 364.67 59.8652 366.933C59.8652 369.197 60.7643 371.367 62.3646 372.967C63.9649 374.568 66.1354 375.467 68.3986 375.467H239.065C241.328 375.467 243.499 374.568 245.099 372.967C246.7 371.367 247.599 369.197 247.599 366.933Z" fill="#263057"/>
<path d="M367.067 332.8H375.6C377.863 332.8 380.034 331.901 381.634 330.301C383.234 328.7 384.133 326.53 384.133 324.267C384.133 322.004 383.234 319.833 381.634 318.233C380.034 316.632 377.863 315.733 375.6 315.733H367.067C364.803 315.733 362.633 316.632 361.033 318.233C359.432 319.833 358.533 322.004 358.533 324.267C358.533 326.53 359.432 328.7 361.033 330.301C362.633 331.901 364.803 332.8 367.067 332.8Z" fill="#263057"/>
</svg>
