<svg width="43" height="41" viewBox="0 0 43 41" fill="none" xmlns="http://www.w3.org/2000/svg">
<path d="M42.2836 0.716675C42.2835 0.716675 42.2833 0.716675 42.2832 0.716675H31.5332C31.1374 0.716675 30.8166 1.03747 30.8166 1.43325C30.8166 1.62335 30.8922 1.80565 31.0265 1.94002L34.1032 5.01667L32.5784 6.54138C29.3818 4.14754 25.4935 2.85781 21.4999 2.86667C11.224 2.85154 2.88168 11.1695 2.86654 21.4454C2.86394 23.2041 3.11075 24.9542 3.59951 26.6435L0.246228 29.5594C-0.047695 29.8153 -0.0834388 30.2591 0.165782 30.5588L3.74912 34.8588C3.87355 35.0079 4.05307 35.1002 4.24675 35.1145C4.26422 35.116 4.28241 35.1167 4.29988 35.1167C4.47528 35.1167 4.64468 35.0523 4.77583 34.9357L6.89385 33.053C13.2434 41.1405 24.947 42.5494 33.0345 36.1997C40.6696 30.2054 42.4178 19.3508 37.0508 11.2624L38.6999 9.61347L41.7765 12.6901C42.0564 12.97 42.5101 12.97 42.79 12.6902C42.9245 12.5558 42.9999 12.3735 42.9999 12.1834V1.43334C43 1.03765 42.6793 0.716764 42.2836 0.716675ZM21.4999 4.30001C22.7045 4.30368 23.9055 4.43295 25.0832 4.68584V6.09167C25.0829 6.28947 24.9227 6.44974 24.7249 6.45001H21.8582C20.8691 6.45108 20.0676 7.25259 20.0665 8.24168V9.67501C20.0663 9.87281 19.906 10.0331 19.7082 10.0333H16.8415C16.6437 10.0331 16.4835 9.87281 16.4832 9.67501C16.4821 8.68592 15.6806 7.88442 14.6915 7.88334H13.9749C12.9858 7.88442 12.1843 8.68592 12.1832 9.67501V11.825C12.1829 12.0228 12.0227 12.1831 11.8249 12.1833H7.05313C10.217 7.2722 15.6579 4.30332 21.4999 4.30001ZM5.04816 16.4833H9.67488C9.87268 16.4836 10.0329 16.6439 10.0332 16.8417V17.5583C10.0329 17.7561 9.87268 17.9164 9.67488 17.9167H8.95821C7.96912 17.9178 7.16762 18.7193 7.16654 19.7083C7.16627 19.9061 7.00601 20.0664 6.80821 20.0667H4.3642C4.46372 18.8512 4.69297 17.65 5.04816 16.4833ZM6.80821 21.5C7.7973 21.4989 8.5988 20.6974 8.59988 19.7083C8.60014 19.5105 8.76041 19.3503 8.95821 19.35H9.67488C10.664 19.3489 11.4655 18.5474 11.4665 17.5583V16.8417C11.4655 15.8526 10.664 15.0511 9.67488 15.05H5.55942C5.7582 14.5604 5.97867 14.0827 6.22063 13.6167H11.8249C12.814 13.6156 13.6155 12.8141 13.6165 11.825V9.67501C13.6168 9.47721 13.7771 9.31694 13.9749 9.31668H14.6915C14.8893 9.31694 15.0496 9.47721 15.0499 9.67501C15.051 10.6641 15.8525 11.4656 16.8415 11.4667H19.7082C20.6973 11.4656 21.4988 10.6641 21.4999 9.67501V8.24168C21.5001 8.04388 21.6604 7.88361 21.8582 7.88334H24.7249C25.714 7.88227 26.5155 7.08076 26.5165 6.09167V5.05448C28.3234 5.60631 30.0256 6.4552 31.5536 7.56631L20.7832 18.3366L17.7066 15.26C17.4405 14.9934 17.0135 14.9786 16.7296 15.226L4.79939 25.6001C4.46901 24.2584 4.30131 22.8818 4.29988 21.5H6.80821ZM13.0058 36.4394C11.0605 35.3333 9.34915 33.859 7.96742 32.0988L12.6351 27.95H16.4832C16.8788 27.9504 17.1995 28.2711 17.1999 28.6667C17.2054 29.8518 18.1648 30.8111 19.3499 30.8167C19.5431 30.8163 19.728 30.8957 19.8608 31.0361C19.994 31.167 20.0682 31.3466 20.0665 31.5333V32.9667C20.0662 33.3623 19.7455 33.683 19.3499 33.6833H16.4832C14.8263 33.6876 13.3883 34.8271 13.0058 36.4394ZM21.5725 38.6981C21.916 37.0319 23.3819 35.8356 25.0832 35.8333H27.2332C28.4206 35.8333 29.3832 34.8708 29.3832 33.6833C29.3832 32.4959 28.4206 31.5333 27.2332 31.5333H25.4415C25.2437 31.5333 25.0832 31.3729 25.0832 31.175C25.0832 30.9771 25.2437 30.8167 25.4415 30.8167H35.9466C32.7963 35.7055 27.3884 38.6708 21.5725 38.6981ZM36.7791 29.3833H25.4415C24.452 29.3833 23.6499 30.1855 23.6499 31.175C23.6499 32.1645 24.452 32.9667 25.4415 32.9667H27.2332C27.629 32.9667 27.9499 33.2876 27.9499 33.6833C27.9499 34.0791 27.629 34.4 27.2332 34.4H25.0832C22.616 34.4045 20.5177 36.2011 20.1333 38.6382C18.1312 38.4761 16.1729 37.9644 14.3475 37.1262C14.4194 35.9986 15.3533 35.1199 16.4832 35.1167H19.3499C20.5368 35.1154 21.4986 34.1536 21.4999 32.9667V31.5333C21.4943 30.3482 20.535 29.3889 19.3499 29.3833C19.1566 29.3837 18.9717 29.3043 18.839 29.164C18.7058 29.033 18.6316 28.8535 18.6332 28.6667C18.632 27.4798 17.6701 26.5179 16.4832 26.5167H14.2476L17.1712 23.918L20.2765 27.0234C20.5562 27.3032 21.0099 27.3033 21.2896 27.0236C21.2897 27.0235 21.2898 27.0234 21.2899 27.0234L29.68 18.6333H32.6082C33.2019 18.6333 33.6832 19.1147 33.6832 19.7083C33.6832 20.302 33.2019 20.7833 32.6082 20.7833H30.0999C28.9149 20.7893 27.9558 21.7483 27.9499 22.9333C27.9511 24.1202 28.913 25.0821 30.0999 25.0833H38.3218C38.0026 26.5794 37.4837 28.0256 36.7791 29.3833ZM37.7978 15.9963C38.6307 18.4563 38.8917 21.074 38.5608 23.6501H30.0999C29.7043 23.6497 29.3836 23.329 29.3832 22.9334C29.3828 22.7405 29.462 22.5558 29.6022 22.4233C29.7331 22.2897 29.9128 22.2151 30.0999 22.2168H32.6082C33.9935 22.2168 35.1166 21.0938 35.1166 19.7084C35.1166 18.3231 33.9935 17.2001 32.6082 17.2001H31.1133L32.5466 15.7668H37.7106C37.738 15.8438 37.7715 15.9186 37.7978 15.9963ZM37.124 14.3333H33.98L36.0162 12.2971C36.4308 12.9502 36.8009 13.6305 37.124 14.3333ZM41.5666 10.4533L39.2066 8.09333C38.9269 7.81347 38.4732 7.81338 38.1935 8.09306C38.1934 8.09315 38.1933 8.09324 38.1932 8.09333L20.7832 25.5033L17.7066 22.4267C17.4384 22.1584 17.0075 22.1456 16.7239 22.3976L4.37683 33.3729L1.71665 30.1805L17.1656 16.7461L20.2765 19.8566C20.5562 20.1365 21.0099 20.1366 21.2896 19.8569C21.2897 19.8568 21.2898 19.8567 21.2899 19.8566L35.6232 5.52327C35.9031 5.24359 35.9032 4.78994 35.6235 4.51017C35.6234 4.51008 35.6233 4.50999 35.6232 4.5099L33.2633 2.15001H41.5666V10.4533Z" fill="#6984F0"/>
</svg>
