<svg width="49" height="37" viewBox="0 0 49 37" fill="none" xmlns="http://www.w3.org/2000/svg">
<path d="M9.35938 15.8477H1.39062C1.17928 15.8477 0.976592 15.7645 0.827149 15.6164C0.677706 15.4683 0.59375 15.2674 0.59375 15.0579C0.59375 14.8485 0.677706 14.6476 0.827149 14.4995C0.976592 14.3514 1.17928 14.2682 1.39062 14.2682H9.35938C9.57072 14.2682 9.77341 14.3514 9.92285 14.4995C10.0723 14.6476 10.1562 14.8485 10.1562 15.0579C10.1562 15.2674 10.0723 15.4683 9.92285 15.6164C9.77341 15.7645 9.57072 15.8477 9.35938 15.8477Z" fill="#6984F0"/>
<path d="M9.35938 22.1659H1.39062C1.17928 22.1659 0.976592 22.0827 0.827149 21.9346C0.677706 21.7864 0.59375 21.5856 0.59375 21.3761C0.59375 21.1667 0.677706 20.9658 0.827149 20.8177C0.976592 20.6696 1.17928 20.5864 1.39062 20.5864H9.35938C9.57072 20.5864 9.77341 20.6696 9.92285 20.8177C10.0723 20.9658 10.1562 21.1667 10.1562 21.3761C10.1562 21.5856 10.0723 21.7864 9.92285 21.9346C9.77341 22.0827 9.57072 22.1659 9.35938 22.1659Z" fill="#6984F0"/>
<path d="M9.35938 19.0065H5.375C5.16366 19.0065 4.96097 18.9233 4.81152 18.7752C4.66208 18.6271 4.57812 18.4262 4.57812 18.2168C4.57812 18.0073 4.66208 17.8064 4.81152 17.6583C4.96097 17.5102 5.16366 17.427 5.375 17.427H9.35938C9.57072 17.427 9.77341 17.5102 9.92285 17.6583C10.0723 17.8064 10.1562 18.0073 10.1562 18.2168C10.1562 18.4262 10.0723 18.6271 9.92285 18.7752C9.77341 18.9233 9.57072 19.0065 9.35938 19.0065Z" fill="#6984F0"/>
<path d="M3.78125 26.9043H2.1875C1.97616 26.9043 1.77347 26.8211 1.62402 26.673C1.47458 26.5249 1.39063 26.324 1.39062 26.1146C1.39062 25.9051 1.47458 25.7042 1.62402 25.5561C1.77347 25.408 1.97616 25.3248 2.1875 25.3248H3.78125C3.99259 25.3248 4.19528 25.408 4.34473 25.5561C4.49417 25.7042 4.57812 25.9051 4.57812 26.1146C4.57812 26.324 4.49417 26.5249 4.34473 26.673C4.19528 26.8211 3.99259 26.9043 3.78125 26.9043Z" fill="#6984F0"/>
<path d="M6.17188 31.6429H5.375C5.16366 31.6429 4.96097 31.5596 4.81152 31.4115C4.66208 31.2634 4.57812 31.0626 4.57812 30.8531C4.57812 30.6436 4.66208 30.4428 4.81152 30.2947C4.96097 30.1466 5.16366 30.0634 5.375 30.0634H6.17188C6.38322 30.0634 6.58591 30.1466 6.73535 30.2947C6.88479 30.4428 6.96875 30.6436 6.96875 30.8531C6.96875 31.0626 6.88479 31.2634 6.73535 31.4115C6.58591 31.5596 6.38322 31.6429 6.17188 31.6429Z" fill="#6984F0"/>
<path d="M10.1562 26.9043H6.17188C5.96053 26.9043 5.75784 26.8211 5.6084 26.673C5.45896 26.5249 5.375 26.324 5.375 26.1146C5.375 25.9051 5.45896 25.7042 5.6084 25.5561C5.75784 25.408 5.96053 25.3248 6.17188 25.3248H10.1562C10.3676 25.3248 10.5703 25.408 10.7197 25.5561C10.8692 25.7042 10.9531 25.9051 10.9531 26.1146C10.9531 26.324 10.8692 26.5249 10.7197 26.673C10.5703 26.8211 10.3676 26.9043 10.1562 26.9043Z" fill="#6984F0"/>
<path d="M30.0781 0.0527344H11.75C11.5387 0.0527344 11.336 0.13594 11.1865 0.284046C11.0371 0.432153 10.9531 0.633028 10.9531 0.842482C10.9531 1.05194 11.0371 1.25281 11.1865 1.40092C11.336 1.54902 11.5387 1.63223 11.75 1.63223H22.617C19.382 3.05989 16.6339 5.38622 14.7053 8.32964C12.7767 11.2731 11.7503 14.7074 11.7503 18.2169C11.7503 21.7265 12.7767 25.1608 14.7053 28.1042C16.6339 31.0476 19.382 33.374 22.617 34.8016H10.1562C9.94491 34.8016 9.74222 34.8848 9.59277 35.033C9.44333 35.1811 9.35938 35.3819 9.35938 35.5914C9.35938 35.8008 9.44333 36.0017 9.59277 36.1498C9.74222 36.2979 9.94491 36.3811 10.1562 36.3811H30.0781C34.939 36.3811 39.6009 34.4674 43.0381 31.061C46.4753 27.6545 48.4062 23.0344 48.4062 18.2169C48.4062 13.3995 46.4753 8.77935 43.0381 5.37291C39.6009 1.96646 34.939 0.0527344 30.0781 0.0527344ZM30.0781 34.8016C26.7684 34.8016 23.533 33.829 20.781 32.0066C18.0291 30.1843 15.8842 27.5941 14.6176 24.5636C13.351 21.5332 13.0196 18.1985 13.6653 14.9814C14.311 11.7643 15.9048 8.80919 18.2451 6.48978C20.5855 4.17036 23.5673 2.59083 26.8134 1.9509C30.0596 1.31098 33.4243 1.63941 36.4821 2.89467C39.5399 4.14992 42.1535 6.27563 43.9922 9.00297C45.831 11.7303 46.8125 14.9368 46.8125 18.2169C46.8076 22.614 45.043 26.8296 41.9058 29.9388C38.7685 33.048 34.5149 34.7968 30.0781 34.8016Z" fill="#6984F0"/>
<path d="M30.0781 3.21155C27.0836 3.21155 24.1563 4.09159 21.6665 5.74038C19.1766 7.38917 17.236 9.73267 16.09 12.4745C14.9441 15.2164 14.6442 18.2334 15.2284 21.1441C15.8126 24.0548 17.2546 26.7285 19.3721 28.827C21.4895 30.9256 24.1874 32.3547 27.1243 32.9336C30.0613 33.5126 33.1056 33.2155 35.8722 32.0798C38.6388 30.9441 41.0034 29.0208 42.6671 26.5532C44.3308 24.0856 45.2188 21.1845 45.2188 18.2168C45.2143 14.2385 43.6177 10.4244 40.7793 7.61132C37.9408 4.79825 34.0923 3.21594 30.0781 3.21155ZM37.5249 29.4201L36.7448 28.0775C36.6928 27.987 36.6233 27.9075 36.5403 27.8437C36.4572 27.7799 36.3623 27.733 36.2608 27.7057C36.1594 27.6784 36.0536 27.6713 35.9493 27.6847C35.8451 27.6981 35.7446 27.7319 35.6536 27.7839C35.5626 27.836 35.4829 27.9054 35.419 27.9882C35.3552 28.0709 35.3085 28.1653 35.2816 28.266C35.2548 28.3667 35.2483 28.4717 35.2625 28.5749C35.2768 28.6781 35.3115 28.7774 35.3646 28.8673L36.1416 30.202C34.5012 31.021 32.7087 31.4975 30.875 31.6022V30.063C30.875 29.8535 30.7911 29.6526 30.6416 29.5045C30.4922 29.3564 30.2895 29.2732 30.0781 29.2732C29.8668 29.2732 29.6641 29.3564 29.5147 29.5045C29.3652 29.6526 29.2813 29.8535 29.2813 30.063V31.6022C27.4478 31.4985 25.6553 31.023 24.0147 30.2051L24.7917 28.8705C24.8448 28.7806 24.8795 28.6812 24.8937 28.578C24.908 28.4748 24.9015 28.3699 24.8746 28.2692C24.8478 28.1685 24.8011 28.0741 24.7372 27.9913C24.6734 27.9086 24.5937 27.8392 24.5027 27.7871C24.4116 27.735 24.3111 27.7013 24.2069 27.6879C24.1027 27.6745 23.9968 27.6816 23.8954 27.7089C23.794 27.7362 23.699 27.7831 23.616 27.8469C23.5329 27.9107 23.4634 27.9902 23.4115 28.0807L22.6313 29.4233C21.0991 28.4189 19.7871 27.1186 18.7737 25.6001L20.1284 24.8269C20.3099 24.7215 20.442 24.5491 20.4957 24.3475C20.5495 24.1459 20.5207 23.9314 20.4154 23.7508C20.3102 23.5702 20.1372 23.4381 19.9341 23.3835C19.731 23.3288 19.5144 23.356 19.3315 23.4591L17.9848 24.2291C17.1579 22.6025 16.6771 20.8249 16.5719 19.0065H18.125C18.3364 19.0065 18.539 18.9233 18.6885 18.7752C18.8379 18.6271 18.9219 18.4262 18.9219 18.2168C18.9219 18.0073 18.8379 17.8064 18.6885 17.6583C18.539 17.5102 18.3364 17.427 18.125 17.427H16.5719C16.6765 15.6099 17.1563 13.8335 17.9816 12.2076L19.3283 12.9776C19.4189 13.0302 19.5192 13.0646 19.6234 13.0787C19.7275 13.0928 19.8334 13.0864 19.935 13.0598C20.0366 13.0332 20.1319 12.9869 20.2154 12.9236C20.2988 12.8604 20.3689 12.7813 20.4214 12.6911C20.474 12.601 20.508 12.5013 20.5215 12.3981C20.5351 12.2948 20.5279 12.1899 20.5003 12.0893C20.4728 11.9888 20.4255 11.8947 20.3611 11.8124C20.2967 11.7301 20.2165 11.6612 20.1252 11.6097L18.7705 10.8366C19.7839 9.31808 21.096 8.01776 22.6281 7.01339L23.4083 8.35596C23.5147 8.53587 23.6886 8.66676 23.8921 8.72007C24.0955 8.77337 24.312 8.74477 24.4942 8.64049C24.6764 8.53622 24.8096 8.36474 24.8648 8.16347C24.9199 7.96221 24.8925 7.74751 24.7885 7.56622L24.0115 6.23154C25.6528 5.41213 27.4465 4.93554 29.2813 4.83132V6.37054C29.2813 6.57999 29.3652 6.78087 29.5147 6.92898C29.6641 7.07708 29.8668 7.16029 30.0781 7.16029C30.2895 7.16029 30.4922 7.07708 30.6416 6.92898C30.7911 6.78087 30.875 6.57999 30.875 6.37054V4.83132C32.7085 4.93498 34.501 5.41048 36.1416 6.22838L35.3646 7.56306C35.3115 7.65291 35.2768 7.75229 35.2625 7.85548C35.2483 7.95867 35.2548 8.06364 35.2816 8.16433C35.3085 8.26502 35.3552 8.35945 35.419 8.44219C35.4829 8.52492 35.5626 8.59433 35.6536 8.64641C35.7446 8.69848 35.8451 8.7322 35.9493 8.74563C36.0536 8.75905 36.1594 8.75192 36.2608 8.72463C36.3623 8.69734 36.4572 8.65044 36.5403 8.58662C36.6233 8.52281 36.6928 8.44335 36.7448 8.35281L37.5249 7.01023C39.0571 8.0146 40.3692 9.31492 41.3826 10.8334L40.0279 11.6066C39.9366 11.658 39.8564 11.7269 39.792 11.8092C39.7276 11.8916 39.6803 11.9857 39.6527 12.0862C39.6252 12.1867 39.618 12.2916 39.6315 12.3949C39.6451 12.4982 39.6791 12.5978 39.7317 12.688C39.7842 12.7782 39.8542 12.8572 39.9377 12.9205C40.0212 12.9837 40.1165 13.03 40.2181 13.0566C40.3197 13.0832 40.4256 13.0897 40.5297 13.0756C40.6339 13.0615 40.7341 13.0271 40.8248 12.9744L42.1715 12.2044C42.9983 13.831 43.4792 15.6086 43.5844 17.427H42.0313C41.8199 17.427 41.6172 17.5102 41.4678 17.6583C41.3183 17.8064 41.2344 18.0073 41.2344 18.2168C41.2344 18.4262 41.3183 18.6271 41.4678 18.7752C41.6172 18.9233 41.8199 19.0065 42.0313 19.0065H43.5844C43.4798 20.8236 43 22.6 42.1747 24.2259L40.828 23.4559C40.7373 23.4033 40.637 23.3689 40.5329 23.3548C40.4288 23.3407 40.3229 23.3471 40.2213 23.3737C40.1197 23.4004 40.0244 23.4466 39.9409 23.5099C39.8574 23.5732 39.7874 23.6522 39.7349 23.7424C39.6823 23.8326 39.6483 23.9322 39.6347 24.0355C39.6212 24.1387 39.6284 24.2437 39.6559 24.3442C39.6835 24.4447 39.7308 24.5388 39.7952 24.6211C39.8596 24.7034 39.9397 24.7723 40.0311 24.8238L41.3858 25.5969C40.3714 27.1157 39.0583 28.4161 37.5249 29.4201Z" fill="#6984F0"/>
<path d="M31.8898 19.7457C32.1436 19.4561 32.3218 19.1093 32.4088 18.7355C32.4958 18.3618 32.4889 17.9726 32.3888 17.6021C32.2886 17.2316 32.0983 16.8912 31.8344 16.6106C31.5706 16.33 31.2413 16.1179 30.8754 15.9928V8.73976C30.8754 8.53031 30.7915 8.32943 30.642 8.18132C30.4926 8.03322 30.2899 7.95001 30.0785 7.95001C29.8672 7.95001 29.6645 8.03322 29.5151 8.18132C29.3656 8.32943 29.2817 8.53031 29.2817 8.73976V15.9928C28.7504 16.1783 28.3025 16.5441 28.0173 17.0254C27.7321 17.5068 27.628 18.0727 27.7235 18.6228C27.8189 19.173 28.1077 19.6719 28.5388 20.0312C28.9698 20.3905 29.5153 20.587 30.0785 20.586C30.2243 20.5848 30.3697 20.5703 30.5128 20.5425L32.5759 24.083C32.6824 24.2629 32.8563 24.3938 33.0597 24.4471C33.2631 24.5004 33.4796 24.4718 33.6618 24.3675C33.8441 24.2632 33.9773 24.0918 34.0324 23.8905C34.0876 23.6892 34.0601 23.4745 33.9561 23.2932L31.8898 19.7457ZM29.2817 18.2167C29.2817 18.0605 29.3284 17.9078 29.416 17.778C29.5035 17.6481 29.628 17.5469 29.7736 17.4871C29.9192 17.4273 30.0794 17.4117 30.234 17.4422C30.3886 17.4726 30.5306 17.5479 30.642 17.6583C30.7535 17.7687 30.8294 17.9095 30.8601 18.0627C30.8908 18.2159 30.8751 18.3747 30.8148 18.519C30.7544 18.6633 30.6523 18.7866 30.5213 18.8734C30.3902 18.9602 30.2361 19.0065 30.0785 19.0065C29.8672 19.0065 29.6645 18.9233 29.5151 18.7752C29.3656 18.6271 29.2817 18.4262 29.2817 18.2167Z" fill="#6984F0"/>
<path d="M7.76562 6.37069H14.1406C14.352 6.37069 14.5547 6.28749 14.7041 6.13938C14.8535 5.99128 14.9375 5.7904 14.9375 5.58095C14.9375 5.37149 14.8535 5.17062 14.7041 5.02251C14.5547 4.8744 14.352 4.7912 14.1406 4.7912H7.76562C7.55428 4.7912 7.35159 4.8744 7.20215 5.02251C7.05271 5.17062 6.96875 5.37149 6.96875 5.58095C6.96875 5.7904 7.05271 5.99128 7.20215 6.13938C7.35159 6.28749 7.55428 6.37069 7.76562 6.37069Z" fill="#6984F0"/>
<path d="M11.75 11.1092C11.9613 11.1092 12.164 11.026 12.3135 10.8779C12.4629 10.7298 12.5469 10.5289 12.5469 10.3195C12.5469 10.11 12.4629 9.90914 12.3135 9.76104C12.164 9.61293 11.9613 9.52972 11.75 9.52972H7.76562C7.55428 9.52972 7.35159 9.61293 7.20215 9.76104C7.05271 9.90914 6.96875 10.11 6.96875 10.3195C6.96875 10.5289 7.05271 10.7298 7.20215 10.8779C7.35159 11.026 7.55428 11.1092 7.76562 11.1092H11.75Z" fill="#6984F0"/>
<path d="M14.1406 30.8531C14.1406 30.6436 14.0567 30.4428 13.9072 30.2947C13.7578 30.1466 13.5551 30.0634 13.3438 30.0634H8.5625C8.35116 30.0634 8.14847 30.1466 7.99902 30.2947C7.84958 30.4428 7.76562 30.6436 7.76562 30.8531C7.76562 31.0626 7.84958 31.2634 7.99902 31.4115C8.14847 31.5596 8.35116 31.6429 8.5625 31.6429H13.3438C13.5551 31.6429 13.7578 31.5596 13.9072 31.4115C14.0567 31.2634 14.1406 31.0626 14.1406 30.8531Z" fill="#6984F0"/>
<path d="M5.375 11.1092H3.78125C3.56991 11.1092 3.36722 11.026 3.21777 10.8779C3.06833 10.7298 2.98438 10.5289 2.98438 10.3195C2.98438 10.11 3.06833 9.90914 3.21777 9.76104C3.36722 9.61293 3.56991 9.52972 3.78125 9.52972H5.375C5.58634 9.52972 5.78903 9.61293 5.93848 9.76104C6.08792 9.90914 6.17188 10.11 6.17188 10.3195C6.17188 10.5289 6.08792 10.7298 5.93848 10.8779C5.78903 11.026 5.58634 11.1092 5.375 11.1092Z" fill="#6984F0"/>
</svg>
