<svg width="42" height="27" viewBox="0 0 42 27" fill="none" xmlns="http://www.w3.org/2000/svg">
<path d="M33.1621 18.4895C32.3378 16.7301 29.3891 14.288 26.5401 11.9284C24.9511 10.6133 23.4496 9.3699 22.4924 8.38989C22.2526 8.14264 21.8939 8.06378 21.5771 8.18026C20.9874 8.39888 20.6234 8.56726 20.3364 8.69803C19.8989 8.89867 19.7519 8.96678 19.1621 9.02767C18.9014 9.05454 18.6669 9.1979 18.5216 9.42004C17.2844 11.3138 16.0034 11.1526 15.1476 10.8588C14.8746 10.7656 14.8256 10.6455 14.7994 10.5309C14.6156 9.74439 15.5379 7.91328 16.7331 6.68954C19.5769 3.77629 21.0434 3.04706 24.1409 4.46429C27.6548 6.07318 31.1759 7.33278 31.2109 7.34529C31.6712 7.50831 32.1664 7.26106 32.3256 6.79343C32.4831 6.32581 32.2433 5.81518 31.7866 5.65217C31.7516 5.63965 28.3006 4.40517 24.8566 2.82668C20.8439 0.990194 18.6423 2.19957 15.4976 5.42104C14.3006 6.64654 12.6748 9.12618 13.0948 10.9448C13.275 11.7188 13.8071 12.2921 14.598 12.559C16.5808 13.2292 18.3902 12.5877 19.7378 10.7567C20.2943 10.6689 20.597 10.5399 21.052 10.3303C21.2165 10.255 21.409 10.1673 21.6645 10.0615C22.6655 11.0236 24.0165 12.1434 25.4393 13.3205C28.0118 15.4508 30.929 17.866 31.5853 19.2635C31.9091 19.9533 31.5608 20.403 31.3245 20.609C30.978 20.9136 30.5038 21.0104 30.2465 20.8258C29.963 20.6269 29.5938 20.6144 29.3015 20.7935C29.0075 20.9727 28.8431 21.3113 28.8798 21.6589C28.9393 22.2287 28.43 22.5548 28.2095 22.6677C27.6495 22.9579 27.065 22.9078 26.8463 22.6999C26.6012 22.467 26.2495 22.3989 25.938 22.5172C25.6265 22.6372 25.4095 22.931 25.378 23.2714C25.3255 23.8591 24.9002 24.4234 24.3455 24.6438C24.0777 24.7477 23.6892 24.8104 23.341 24.4843C23.124 24.2837 22.823 24.2066 22.5413 24.2765C22.256 24.3481 22.0268 24.5596 21.927 24.8408C21.8938 24.9304 21.8185 25.1454 20.9995 25.1454C20.4167 25.1454 19.3685 24.7423 18.8558 24.3947C18.2415 23.9808 14.3897 21.0389 11.063 18.1866C10.5958 17.7835 9.78728 16.9198 9.07328 16.1566C8.43975 15.4793 7.86053 14.8648 7.563 14.6068C7.19025 14.2843 6.639 14.3327 6.32925 14.7126C6.01778 15.0906 6.06322 15.6568 6.43253 15.9757C6.70381 16.2104 7.22881 16.7783 7.80803 17.3965C8.58856 18.2313 9.39525 19.095 9.93781 19.5608C13.1963 22.3541 17.1128 25.3694 17.8933 25.8943C18.5373 26.3279 19.925 26.9371 20.9996 26.9371C21.8623 26.9371 22.5256 26.7346 22.9858 26.3387C23.6018 26.5842 24.3018 26.5859 24.9755 26.3172C25.7718 26.0018 26.4263 25.3658 26.7973 24.5954C27.4868 24.7459 28.2761 24.6402 28.9935 24.2712C29.6953 23.9093 30.2027 23.3557 30.4547 22.7088C31.1513 22.7464 31.8687 22.4938 32.462 21.9724C33.4666 21.0928 33.743 19.724 33.1621 18.4895Z" fill="#6984F0"/>
<path d="M17.5 3.64551H9.62503C9.14203 3.64551 8.75 4.04687 8.75 4.54137C8.75 5.03587 9.14203 5.43723 9.62503 5.43723H17.5C17.983 5.43723 18.3751 5.03587 18.3751 4.54137C18.3751 4.04687 17.983 3.64551 17.5 3.64551Z" fill="#6984F0"/>
<path d="M35.7261 16.5832C35.4549 16.1729 34.9124 16.06 34.5117 16.3395L31.9532 18.0989C31.5525 18.3748 31.4457 18.932 31.7152 19.3423C31.885 19.5985 32.1615 19.7383 32.4433 19.7383C32.6095 19.7383 32.7793 19.6899 32.9298 19.586L35.4883 17.8266C35.8889 17.5507 35.9956 16.9935 35.7261 16.5832Z" fill="#6984F0"/>
<path d="M30.2939 20.8581C29.6674 20.3529 26.8657 17.4164 25.1332 15.5674C24.7989 15.209 24.2442 15.1965 23.8959 15.5405C23.5459 15.8827 23.5354 16.4506 23.8697 16.8072C24.3194 17.2874 28.2866 21.5211 29.2089 22.2665C29.3681 22.3955 29.5606 22.4582 29.7496 22.4582C30.0069 22.4582 30.2641 22.34 30.4391 22.116C30.7385 21.7289 30.6737 21.1645 30.2939 20.8581Z" fill="#6984F0"/>
<path d="M26.7978 22.6552C25.7495 21.7969 23.1158 18.932 22.5208 18.2692C22.1917 17.9037 21.6405 17.8822 21.2835 18.2154C20.9282 18.5504 20.9038 19.1184 21.231 19.4821C21.2625 19.5162 24.4055 22.9903 25.704 24.0545C25.865 24.1853 26.0593 24.2498 26.25 24.2498C26.5055 24.2498 26.761 24.1333 26.9342 23.9147C27.2354 23.5277 27.1741 22.9633 26.7978 22.6552Z" fill="#6984F0"/>
<path d="M23.3154 24.4594C22.0677 23.3826 19.5144 20.6001 19.0157 20.0536C18.6849 19.6918 18.1302 19.672 17.7784 20.0106C17.4249 20.3493 17.4074 20.9154 17.7364 21.2774C18.4539 22.0639 20.8969 24.7156 22.1867 25.83C22.3512 25.9715 22.5507 26.0414 22.7502 26.0414C22.9986 26.0414 23.2472 25.9321 23.4204 25.7225C23.7319 25.3426 23.6847 24.7783 23.3154 24.4594Z" fill="#6984F0"/>
<path d="M10.227 2.09938C8.72722 0.644523 2.73 0.173287 0.927527 0.064023C0.679055 0.0515093 0.449777 0.135662 0.274805 0.305898C0.09975 0.474287 0 0.710787 0 0.958037V17.083C0 17.5775 0.392027 17.9789 0.875027 17.9789H6.12503C6.50303 17.9789 6.83903 17.7299 6.95625 17.3608C7.08397 16.9594 10.0993 7.48513 10.4965 2.82677C10.5193 2.55441 10.4213 2.28566 10.227 2.09938ZM5.48625 16.1873H1.74997V1.9184C4.56225 2.14591 7.59675 2.64041 8.69925 3.18866C8.23553 7.11241 6.13725 14.0838 5.48625 16.1873Z" fill="#6984F0"/>
<path d="M41.1246 1.85388C34.2541 1.85388 30.4426 3.65451 30.2833 3.72976C30.0559 3.83902 29.8861 4.04151 29.8161 4.28699C29.7461 4.53248 29.7811 4.79586 29.9123 5.01438C30.9938 6.79712 34.3801 16.6979 35.0311 19.113C35.1361 19.5018 35.4808 19.7705 35.8746 19.7705H41.1246C41.6076 19.7705 41.9996 19.3692 41.9996 18.8747V2.74966C41.9996 2.2534 41.6076 1.85388 41.1246 1.85388ZM40.2496 17.9789H36.5291C35.6996 15.2125 33.2496 7.99927 31.8829 5.01799C33.2181 4.55398 36.0864 3.75663 40.2496 3.65636V17.9789Z" fill="#6984F0"/>
</svg>
