<svg width="30" height="34" viewBox="0 0 30 34" fill="none" xmlns="http://www.w3.org/2000/svg">
<path d="M22.7417 14.8271H10.2012V9.08942C10.2012 8.24533 10.5342 7.45364 11.139 6.86036C11.7434 6.26736 12.541 5.95312 13.3865 5.96554C15.0759 5.99755 16.4502 7.42887 16.4502 9.15609V9.62911C16.4502 11.2737 17.7882 12.6115 19.4327 12.6115C21.0772 12.6115 22.4151 11.2736 22.4151 9.62911V9.08942C22.4151 6.6484 21.4575 4.35559 19.7186 2.63354C18.0016 0.933074 15.7349 0 13.3267 0C13.2967 0 13.2663 0.000199219 13.2362 0.000398437C8.27368 0.0484766 4.23625 4.17297 4.23625 9.19441V14.8271H3.9096C2.28862 14.8271 0.969727 16.1459 0.969727 17.7669V31.0601C0.969793 32.6812 2.28862 34 3.90966 34H22.7417C24.3627 34 25.6816 32.6812 25.6816 31.0601V17.7669C25.6816 16.1459 24.3627 14.8271 22.7417 14.8271ZM5.9405 9.19441C5.9405 5.10359 9.2207 1.74363 13.2526 1.70452C13.2772 1.70432 13.3016 1.70418 13.3261 1.70418C15.2822 1.70418 17.124 2.46261 18.5193 3.84439C19.9325 5.2439 20.7107 7.1066 20.7107 9.08936V9.62911C20.7107 10.3339 20.1373 10.9073 19.4325 10.9073C18.7278 10.9073 18.1543 10.3339 18.1543 9.62911V9.15609C18.1543 6.50675 16.0299 4.31116 13.4187 4.26162C12.1102 4.23645 10.8789 4.72773 9.94533 5.64387C9.01132 6.56041 8.49688 7.78401 8.49688 9.08955V14.8271H5.9405V9.19441ZM23.9773 31.0601C23.9773 31.7414 23.423 32.2957 22.7417 32.2957H3.90966C3.2284 32.2957 2.67404 31.7415 2.67404 31.0601V17.7669C2.67404 17.0857 3.22834 16.5313 3.90966 16.5313H22.7417C23.423 16.5313 23.9774 17.0856 23.9774 17.7669V31.0601H23.9773Z" fill="#6984F0"/>
<path d="M13.3257 18.2072C11.227 18.2072 9.51953 19.9147 9.51953 22.0134C9.51953 23.0911 9.97979 24.115 10.7694 24.832V29.7677C10.7694 30.2383 11.1509 30.6199 11.6215 30.6199H15.03C15.5006 30.6199 15.8821 30.2383 15.8821 29.7677V24.832C16.6717 24.115 17.1319 23.0911 17.1319 22.0134C17.1319 19.9147 15.4244 18.2072 13.3257 18.2072ZM14.5376 23.73C14.312 23.8898 14.1779 24.1491 14.1779 24.4256V28.9156H12.4736V24.4256C12.4736 24.1491 12.3395 23.8898 12.1138 23.73C11.5565 23.3355 11.2238 22.6938 11.2238 22.0133C11.2238 20.8543 12.1667 19.9114 13.3258 19.9114C14.4849 19.9114 15.4278 20.8543 15.4278 22.0133C15.4276 22.6938 15.0949 23.3355 14.5376 23.73Z" fill="#6984F0"/>
<path d="M28.6044 14.3661L25.628 12.6476C25.2205 12.4123 24.6993 12.5519 24.4639 12.9595C24.2286 13.3671 24.3682 13.8882 24.7758 14.1236L27.7523 15.842C27.8865 15.9195 28.033 15.9564 28.1776 15.9564C28.4721 15.9564 28.7585 15.8035 28.9163 15.5301C29.1517 15.1225 29.012 14.6014 28.6044 14.3661Z" fill="#6984F0"/>
<path d="M25.2027 10.8292C25.3472 10.8292 25.4938 10.7923 25.628 10.7149L28.6044 8.99649C29.012 8.76121 29.1517 8.24006 28.9163 7.83246C28.6811 7.42485 28.1598 7.28513 27.7523 7.52055L24.7758 9.23894C24.3682 9.47422 24.2286 9.99537 24.4639 10.403C24.6218 10.6764 24.9082 10.8292 25.2027 10.8292Z" fill="#6984F0"/>
</svg>
