<svg width="39" height="42" viewBox="0 0 39 42" fill="none" xmlns="http://www.w3.org/2000/svg">
<path d="M17.0648 38.5361C16.9355 31.069 11.3848 24.3362 3.67303 24.1653C-0.792435 24.073 -0.7832 30.9951 3.67303 31.0921C5.41396 31.1291 6.81778 31.8217 8.19851 33.2671C9.45457 34.5694 10.1288 36.5966 10.1611 38.5315C10.2396 42.9877 17.171 42.9969 17.0879 38.5315" stroke="#263057" fill="#ffffff"/>
<path d="M38.7318 38.5361C38.7219 28.555 35.0776 18.919 28.4802 11.4293C25.3668 7.90462 21.5526 5.0678 17.2813 3.09991C13.01 1.13202 8.37532 0.0762882 3.67309 0.000112711C-0.796986 -0.0322122 -0.792368 6.89918 3.67309 6.92689C7.29741 6.95768 10.8755 7.74407 14.1787 9.23581C17.6616 10.8445 20.7744 13.1556 23.322 16.0241C25.8828 18.8713 27.9297 22.1416 29.3714 25.6892C30.991 29.7701 31.817 34.1225 31.805 38.513C31.805 42.9785 38.7318 42.9785 38.7318 38.513" stroke="#263057" fill="#ffffff"/>
<path d="M3.6222 19.044C8.24005 19.0856 12.2853 21.0805 15.5917 24.5854C18.9812 28.2428 20.796 33.4332 20.8283 38.536C20.8606 42.9968 27.7828 42.9968 27.7551 38.536C27.6396 25.1119 17.6882 12.2604 3.60835 12.1219C-0.85711 12.0711 -0.852492 18.9978 3.60835 19.0486" stroke="#263057" fill="#ffffff"/>
</svg>
