<svg width="354" height="354" viewBox="0 0 354 354" fill="none" xmlns="http://www.w3.org/2000/svg">
<mask id="path-1-inside-1_697_747" fill="white">
<path d="M340.317 245.24C351.539 218.382 355.964 189.171 353.2 160.195C350.437 131.219 340.57 103.371 324.473 79.119C308.376 54.8669 286.547 34.9589 260.919 21.1584C235.291 7.35781 206.654 0.0907366 177.547 0.000844058C148.439 -0.0890485 119.758 7.00101 94.0453 20.643C68.3322 34.285 46.3804 54.0578 30.1343 78.21C13.8882 102.362 3.84924 130.148 0.906724 159.107C-2.03579 188.066 2.20893 217.303 13.2649 244.23L32.3626 236.388C22.5962 212.602 18.8465 186.775 21.4458 161.194C24.0451 135.613 32.9132 111.068 47.2644 89.7327C61.6156 68.3975 81.007 50.9309 103.721 38.8801C126.435 26.8293 151.77 20.5662 177.483 20.6456C203.195 20.725 228.492 27.1445 251.131 39.3354C273.77 51.5262 293.053 69.1122 307.272 90.5356C321.491 111.959 330.208 136.559 332.649 162.155C335.09 187.752 331.181 213.555 321.268 237.28L340.317 245.24Z"/>
</mask>
<path d="M340.317 245.24C351.539 218.382 355.964 189.171 353.2 160.195C350.437 131.219 340.57 103.371 324.473 79.119C308.376 54.8669 286.547 34.9589 260.919 21.1584C235.291 7.35781 206.654 0.0907366 177.547 0.000844058C148.439 -0.0890485 119.758 7.00101 94.0453 20.643C68.3322 34.285 46.3804 54.0578 30.1343 78.21C13.8882 102.362 3.84924 130.148 0.906724 159.107C-2.03579 188.066 2.20893 217.303 13.2649 244.23L32.3626 236.388C22.5962 212.602 18.8465 186.775 21.4458 161.194C24.0451 135.613 32.9132 111.068 47.2644 89.7327C61.6156 68.3975 81.007 50.9309 103.721 38.8801C126.435 26.8293 151.77 20.5662 177.483 20.6456C203.195 20.725 228.492 27.1445 251.131 39.3354C273.77 51.5262 293.053 69.1122 307.272 90.5356C321.491 111.959 330.208 136.559 332.649 162.155C335.09 187.752 331.181 213.555 321.268 237.28L340.317 245.24Z" stroke="#263057" stroke-width="62" mask="url(#path-1-inside-1_697_747)"/>
<mask id="path-2-inside-2_697_747" fill="white">
<path d="M140.705 3.76131C115.282 9.08755 91.344 19.9436 70.588 35.5592C49.8321 51.1748 32.7673 71.1672 20.6046 94.1177C8.44189 117.068 1.47938 142.414 0.211124 168.357C-1.05714 194.301 3.39993 220.205 13.2661 244.232L32.3636 236.391C23.6482 215.166 19.711 192.283 20.8314 169.366C21.9517 146.448 28.1021 124.059 38.8462 103.785C49.5903 83.5113 64.6646 65.8508 82.9997 52.0566C101.335 38.2623 122.481 28.6725 144.938 23.9675L140.705 3.76131Z"/>
</mask>
<path d="M140.705 3.76131C115.282 9.08755 91.344 19.9436 70.588 35.5592C49.8321 51.1748 32.7673 71.1672 20.6046 94.1177C8.44189 117.068 1.47938 142.414 0.211124 168.357C-1.05714 194.301 3.39993 220.205 13.2661 244.232L32.3636 236.391C23.6482 215.166 19.711 192.283 20.8314 169.366C21.9517 146.448 28.1021 124.059 38.8462 103.785C49.5903 83.5113 64.6646 65.8508 82.9997 52.0566C101.335 38.2623 122.481 28.6725 144.938 23.9675L140.705 3.76131Z" stroke="#6984F0" stroke-width="62" mask="url(#path-2-inside-2_697_747)"/>
<path d="M48.1008 223.42C46.8608 221.52 46.2408 218.88 46.2408 215.5C46.2408 212.12 46.8508 209.49 48.0708 207.61C49.3108 205.71 51.1208 204.76 53.5008 204.76C55.8608 204.76 57.6608 205.71 58.9008 207.61C60.1408 209.51 60.7608 212.14 60.7608 215.5C60.7608 218.9 60.1508 221.54 58.9308 223.42C57.7108 225.3 55.9208 226.24 53.5608 226.24C51.1808 226.24 49.3608 225.3 48.1008 223.42ZM51.0408 215.5C51.0408 219.86 51.8808 222.04 53.5608 222.04C54.4208 222.04 55.0308 221.55 55.3908 220.57C55.7708 219.59 55.9608 217.9 55.9608 215.5C55.9608 213.1 55.7708 211.41 55.3908 210.43C55.0308 209.45 54.4008 208.96 53.5008 208.96C52.6408 208.96 52.0108 209.47 51.6108 210.49C51.2308 211.49 51.0408 213.16 51.0408 215.5Z" fill="#263057"/>
<path d="M37.6634 160.86L35.3234 157.14L41.0234 153H44.2634V174H39.7634V159.39L37.6634 160.86Z" fill="#263057"/>
<path d="M47.2142 112.76L48.6542 101H59.0342V105.5H52.6142L52.1942 108.17H52.9142C54.7942 108.17 56.3542 108.79 57.5942 110.03C58.8542 111.25 59.4842 112.91 59.4842 115.01C59.4842 117.29 58.7642 119.09 57.3242 120.41C55.8642 121.71 54.0342 122.36 51.8342 122.36C50.6542 122.36 49.4742 122.11 48.2942 121.61C47.1142 121.09 46.2242 120.4 45.6242 119.54L48.1442 116.09C48.5642 116.59 49.1342 117.01 49.8542 117.35C50.5942 117.69 51.2942 117.86 51.9542 117.86C52.7542 117.86 53.4042 117.62 53.9042 117.14C54.4242 116.64 54.6842 116 54.6842 115.22C54.6842 114.32 54.3342 113.6 53.6342 113.06C52.9542 112.5 52.0142 112.22 50.8142 112.22C49.1542 112.22 47.9542 112.4 47.2142 112.76Z" fill="#263057"/>
<path d="M93.0043 56.86L90.6643 53.14L96.3643 49H99.6043V70H95.1043V55.39L93.0043 56.86ZM105.077 67.42C103.837 65.52 103.217 62.88 103.217 59.5C103.217 56.12 103.827 53.49 105.047 51.61C106.287 49.71 108.097 48.76 110.477 48.76C112.837 48.76 114.637 49.71 115.877 51.61C117.117 53.51 117.737 56.14 117.737 59.5C117.737 62.9 117.127 65.54 115.907 67.42C114.687 69.3 112.897 70.24 110.537 70.24C108.157 70.24 106.337 69.3 105.077 67.42ZM108.017 59.5C108.017 63.86 108.857 66.04 110.537 66.04C111.397 66.04 112.007 65.55 112.367 64.57C112.747 63.59 112.937 61.9 112.937 59.5C112.937 57.1 112.747 55.41 112.367 54.43C112.007 53.45 111.377 52.96 110.477 52.96C109.617 52.96 108.987 53.47 108.587 54.49C108.207 55.49 108.017 57.16 108.017 59.5Z" fill="#263057"/>
<path d="M174.464 53H160.904V49.4C160.924 49.38 161.414 48.91 162.374 47.99L164.024 46.34C164.384 45.94 164.864 45.44 165.464 44.84C166.144 44.12 166.624 43.55 166.904 43.13L167.894 41.6C168.594 40.54 168.944 39.45 168.944 38.33C168.944 36.95 168.304 36.26 167.024 36.26C166.444 36.26 165.984 36.45 165.644 36.83C165.304 37.19 164.994 37.75 164.714 38.51L160.964 36.8C161.324 35.22 162.064 33.99 163.184 33.11C164.324 32.21 165.784 31.76 167.564 31.76C169.504 31.76 171.014 32.31 172.094 33.41C173.194 34.51 173.744 35.85 173.744 37.43C173.744 41.41 171.404 45.2 166.724 48.8H174.464V53ZM178.438 50.42C177.198 48.52 176.578 45.88 176.578 42.5C176.578 39.12 177.188 36.49 178.408 34.61C179.648 32.71 181.458 31.76 183.838 31.76C186.198 31.76 187.998 32.71 189.238 34.61C190.478 36.51 191.098 39.14 191.098 42.5C191.098 45.9 190.488 48.54 189.268 50.42C188.048 52.3 186.258 53.24 183.898 53.24C181.518 53.24 179.698 52.3 178.438 50.42ZM181.378 42.5C181.378 46.86 182.218 49.04 183.898 49.04C184.758 49.04 185.368 48.55 185.728 47.57C186.108 46.59 186.298 44.9 186.298 42.5C186.298 40.1 186.108 38.41 185.728 37.43C185.368 36.45 184.738 35.96 183.838 35.96C182.978 35.96 182.348 36.47 181.948 37.49C181.568 38.49 181.378 40.16 181.378 42.5Z" fill="#263057"/>
<path d="M238.631 70.36C237.031 70.36 235.631 70.05 234.431 69.43C233.231 68.79 232.321 67.94 231.701 66.88L234.191 63.55C235.551 65.09 236.931 65.86 238.331 65.86C239.171 65.86 239.821 65.67 240.281 65.29C240.741 64.91 240.971 64.42 240.971 63.82C240.971 62.28 239.781 61.51 237.401 61.51H236.081V57.01H237.281C238.141 57.01 238.831 56.83 239.351 56.47C239.891 56.09 240.161 55.57 240.161 54.91C240.161 54.39 240.001 53.97 239.681 53.65C239.361 53.31 238.881 53.14 238.241 53.14C236.841 53.14 235.631 53.77 234.611 55.03L232.151 51.79C233.431 49.69 235.601 48.64 238.661 48.64C240.521 48.64 242.031 49.13 243.191 50.11C244.371 51.07 244.961 52.37 244.961 54.01C244.961 56.35 243.921 57.99 241.841 58.93V59.02C243.081 59.26 244.041 59.83 244.721 60.73C245.421 61.61 245.771 62.7 245.771 64C245.771 65.92 245.091 67.47 243.731 68.65C242.391 69.79 240.691 70.36 238.631 70.36ZM250.04 67.42C248.8 65.52 248.18 62.88 248.18 59.5C248.18 56.12 248.79 53.49 250.01 51.61C251.25 49.71 253.06 48.76 255.44 48.76C257.8 48.76 259.6 49.71 260.84 51.61C262.08 53.51 262.7 56.14 262.7 59.5C262.7 62.9 262.09 65.54 260.87 67.42C259.65 69.3 257.86 70.24 255.5 70.24C253.12 70.24 251.3 69.3 250.04 67.42ZM252.98 59.5C252.98 63.86 253.82 66.04 255.5 66.04C256.36 66.04 256.97 65.55 257.33 64.57C257.71 63.59 257.9 61.9 257.9 59.5C257.9 57.1 257.71 55.41 257.33 54.43C256.97 53.45 256.34 52.96 255.44 52.96C254.58 52.96 253.95 53.47 253.55 54.49C253.17 55.49 252.98 57.16 252.98 59.5Z" fill="#263057"/>
<path d="M279.055 112.76L280.495 101H290.875V105.5H284.455L284.035 108.17H284.755C286.635 108.17 288.195 108.79 289.435 110.03C290.695 111.25 291.325 112.91 291.325 115.01C291.325 117.29 290.605 119.09 289.165 120.41C287.705 121.71 285.875 122.36 283.675 122.36C282.495 122.36 281.315 122.11 280.135 121.61C278.955 121.09 278.065 120.4 277.465 119.54L279.985 116.09C280.405 116.59 280.975 117.01 281.695 117.35C282.435 117.69 283.135 117.86 283.795 117.86C284.595 117.86 285.245 117.62 285.745 117.14C286.265 116.64 286.525 116 286.525 115.22C286.525 114.32 286.175 113.6 285.475 113.06C284.795 112.5 283.855 112.22 282.655 112.22C280.995 112.22 279.795 112.4 279.055 112.76ZM295.277 119.42C294.037 117.52 293.417 114.88 293.417 111.5C293.417 108.12 294.027 105.49 295.247 103.61C296.487 101.71 298.297 100.76 300.677 100.76C303.037 100.76 304.837 101.71 306.077 103.61C307.317 105.51 307.937 108.14 307.937 111.5C307.937 114.9 307.327 117.54 306.107 119.42C304.887 121.3 303.097 122.24 300.737 122.24C298.357 122.24 296.537 121.3 295.277 119.42ZM298.217 111.5C298.217 115.86 299.057 118.04 300.737 118.04C301.597 118.04 302.207 117.55 302.567 116.57C302.947 115.59 303.137 113.9 303.137 111.5C303.137 109.1 302.947 107.41 302.567 106.43C302.207 105.45 301.577 104.96 300.677 104.96C299.817 104.96 299.187 105.47 298.787 106.49C298.407 107.49 298.217 109.16 298.217 111.5Z" fill="#263057"/>
<path d="M297.208 157.5H288.778V153H302.578V156.06L295.468 174H290.548L297.208 157.5ZM305.361 164.76L306.801 153H317.181V157.5H310.761L310.341 160.17H311.061C312.941 160.17 314.501 160.79 315.741 162.03C317.001 163.25 317.631 164.91 317.631 167.01C317.631 169.29 316.911 171.09 315.471 172.41C314.011 173.71 312.181 174.36 309.981 174.36C308.801 174.36 307.621 174.11 306.441 173.61C305.261 173.09 304.371 172.4 303.771 171.54L306.291 168.09C306.711 168.59 307.281 169.01 308.001 169.35C308.741 169.69 309.441 169.86 310.101 169.86C310.901 169.86 311.551 169.62 312.051 169.14C312.571 168.64 312.831 168 312.831 167.22C312.831 166.32 312.481 165.6 311.781 165.06C311.101 164.5 310.161 164.22 308.961 164.22C307.301 164.22 306.101 164.4 305.361 164.76Z" fill="#263057"/>
<path d="M266.845 212.86L264.505 209.14L270.205 205H273.445V226H268.945V211.39L266.845 212.86ZM278.918 223.42C277.678 221.52 277.058 218.88 277.058 215.5C277.058 212.12 277.668 209.49 278.888 207.61C280.128 205.71 281.938 204.76 284.318 204.76C286.678 204.76 288.478 205.71 289.718 207.61C290.958 209.51 291.578 212.14 291.578 215.5C291.578 218.9 290.968 221.54 289.748 223.42C288.528 225.3 286.738 226.24 284.378 226.24C281.998 226.24 280.178 225.3 278.918 223.42ZM281.858 215.5C281.858 219.86 282.698 222.04 284.378 222.04C285.238 222.04 285.848 221.55 286.208 220.57C286.588 219.59 286.778 217.9 286.778 215.5C286.778 213.1 286.588 211.41 286.208 210.43C285.848 209.45 285.218 208.96 284.318 208.96C283.458 208.96 282.828 209.47 282.428 210.49C282.048 211.49 281.858 213.16 281.858 215.5ZM295.237 223.42C293.997 221.52 293.377 218.88 293.377 215.5C293.377 212.12 293.987 209.49 295.207 207.61C296.447 205.71 298.257 204.76 300.637 204.76C302.997 204.76 304.797 205.71 306.037 207.61C307.277 209.51 307.897 212.14 307.897 215.5C307.897 218.9 307.287 221.54 306.067 223.42C304.847 225.3 303.057 226.24 300.697 226.24C298.317 226.24 296.497 225.3 295.237 223.42ZM298.177 215.5C298.177 219.86 299.017 222.04 300.697 222.04C301.557 222.04 302.167 221.55 302.527 220.57C302.907 219.59 303.097 217.9 303.097 215.5C303.097 213.1 302.907 211.41 302.527 210.43C302.167 209.45 301.537 208.96 300.637 208.96C299.777 208.96 299.147 209.47 298.747 210.49C298.367 211.49 298.177 213.16 298.177 215.5Z" fill="#263057"/>
<path d="M177.192 133L187.523 150.125L79.2794 211.921L71.5312 199.077L177.192 133Z" fill="url(#paint0_linear_697_747)"/>
<defs>
<linearGradient id="paint0_linear_697_747" x1="182.358" y1="141.563" x2="75.6636" y2="205.928" gradientUnits="userSpaceOnUse">
<stop stop-color="#6984F0" stop-opacity="0"/>
<stop offset="1" stop-color="#6984F0"/>
</linearGradient>
</defs>
</svg>
