<svg width="76" height="59" viewBox="0 0 76 59" fill="none" xmlns="http://www.w3.org/2000/svg">
<path d="M14.25 25.8056H1.75C1.41848 25.8056 1.10054 25.6741 0.866116 25.4398C0.631696 25.2056 0.5 24.888 0.5 24.5567C0.5 24.2255 0.631696 23.9078 0.866116 23.6736C1.10054 23.4394 1.41848 23.3078 1.75 23.3078H14.25C14.5815 23.3078 14.8995 23.4394 15.1339 23.6736C15.3683 23.9078 15.5 24.2255 15.5 24.5567C15.5 24.888 15.3683 25.2056 15.1339 25.4398C14.8995 25.6741 14.5815 25.8056 14.25 25.8056Z" fill="#6984F0"/>
<path d="M14.25 35.7972H1.75C1.41848 35.7972 1.10054 35.6656 0.866116 35.4314C0.631696 35.1971 0.5 34.8795 0.5 34.5483C0.5 34.217 0.631696 33.8994 0.866116 33.6651C1.10054 33.4309 1.41848 33.2993 1.75 33.2993H14.25C14.5815 33.2993 14.8995 33.4309 15.1339 33.6651C15.3683 33.8994 15.5 34.217 15.5 34.5483C15.5 34.8795 15.3683 35.1971 15.1339 35.4314C14.8995 35.6656 14.5815 35.7972 14.25 35.7972Z" fill="#6984F0"/>
<path d="M14.25 30.801H8C7.66848 30.801 7.35054 30.6694 7.11612 30.4352C6.8817 30.2009 6.75 29.8833 6.75 29.5521C6.75 29.2208 6.8817 28.9032 7.11612 28.6689C7.35054 28.4347 7.66848 28.3031 8 28.3031H14.25C14.5815 28.3031 14.8995 28.4347 15.1339 28.6689C15.3683 28.9032 15.5 29.2208 15.5 29.5521C15.5 29.8833 15.3683 30.2009 15.1339 30.4352C14.8995 30.6694 14.5815 30.801 14.25 30.801Z" fill="#6984F0"/>
<path d="M5.5 43.2906H3C2.66848 43.2906 2.35054 43.159 2.11612 42.9248C1.8817 42.6906 1.75 42.3729 1.75 42.0417C1.75 41.7104 1.8817 41.3928 2.11612 41.1586C2.35054 40.9243 2.66848 40.7928 3 40.7928H5.5C5.83152 40.7928 6.14946 40.9243 6.38388 41.1586C6.6183 41.3928 6.75 41.7104 6.75 42.0417C6.75 42.3729 6.6183 42.6906 6.38388 42.9248C6.14946 43.159 5.83152 43.2906 5.5 43.2906Z" fill="#6984F0"/>
<path d="M9.25 50.784H8C7.66848 50.784 7.35054 50.6524 7.11612 50.4182C6.8817 50.184 6.75 49.8663 6.75 49.5351C6.75 49.2039 6.8817 48.8862 7.11612 48.652C7.35054 48.4178 7.66848 48.2862 8 48.2862H9.25C9.58152 48.2862 9.89946 48.4178 10.1339 48.652C10.3683 48.8862 10.5 49.2039 10.5 49.5351C10.5 49.8663 10.3683 50.184 10.1339 50.4182C9.89946 50.6524 9.58152 50.784 9.25 50.784Z" fill="#6984F0"/>
<path d="M15.5 43.2906H9.25C8.91848 43.2906 8.60054 43.159 8.36612 42.9248C8.1317 42.6906 8 42.3729 8 42.0417C8 41.7104 8.1317 41.3928 8.36612 41.1586C8.60054 40.9243 8.91848 40.7928 9.25 40.7928H15.5C15.8315 40.7928 16.1495 40.9243 16.3839 41.1586C16.6183 41.3928 16.75 41.7104 16.75 42.0417C16.75 42.3729 16.6183 42.6906 16.3839 42.9248C16.1495 43.159 15.8315 43.2906 15.5 43.2906Z" fill="#6984F0"/>
<path d="M46.75 0.82756H18C17.6685 0.82756 17.3505 0.959141 17.1161 1.19336C16.8817 1.42757 16.75 1.74523 16.75 2.07646C16.75 2.40769 16.8817 2.72536 17.1161 2.95957C17.3505 3.19379 17.6685 3.32537 18 3.32537H35.0462C29.9718 5.58307 25.661 9.26191 22.6358 13.9166C19.6105 18.5713 18.0005 24.0023 18.0005 29.5523C18.0005 35.1023 19.6105 40.5334 22.6358 45.1881C25.661 49.8428 29.9718 53.5216 35.0462 55.7793H15.5C15.1685 55.7793 14.8505 55.9109 14.6161 56.1451C14.3817 56.3793 14.25 56.697 14.25 57.0282C14.25 57.3594 14.3817 57.6771 14.6161 57.9113C14.8505 58.1455 15.1685 58.2771 15.5 58.2771H46.75C54.375 58.2771 61.6876 55.2508 67.0793 49.8638C72.471 44.4769 75.5 37.1706 75.5 29.5523C75.5 21.9341 72.471 14.6278 67.0793 9.24085C61.6876 3.85391 54.375 0.82756 46.75 0.82756ZM46.75 55.7793C41.5582 55.7793 36.4831 54.2411 32.1663 51.3593C27.8495 48.4774 24.485 44.3813 22.4982 39.589C20.5114 34.7966 19.9915 29.5232 21.0044 24.4357C22.0172 19.3482 24.5173 14.675 28.1884 11.0071C31.8596 7.33916 36.5369 4.84128 41.6289 3.82931C46.7209 2.81734 51.9989 3.33672 56.7954 5.32178C61.592 7.30683 65.6917 10.6684 68.5761 14.9814C71.4605 19.2944 73 24.3651 73 29.5523C72.9924 36.5058 70.2243 43.1723 65.3031 48.0892C60.382 53.0061 53.7096 55.7717 46.75 55.7793Z" fill="#6984F0"/>
<path d="M46.75 5.82288C42.0527 5.82288 37.4609 7.21457 33.5552 9.82196C29.6496 12.4294 26.6055 16.1353 24.8079 20.4713C23.0103 24.8072 22.54 29.5784 23.4564 34.1814C24.3728 38.7844 26.6347 43.0125 29.9562 46.3311C33.2777 49.6497 37.5096 51.9097 42.1166 52.8253C46.7237 53.7409 51.499 53.2709 55.8387 51.4749C60.1785 49.6789 63.8877 46.6375 66.4974 42.7353C69.1071 38.833 70.5 34.2452 70.5 29.552C70.4931 23.2608 67.9886 17.2292 63.5361 12.7807C59.0836 8.33208 53.0468 5.82982 46.75 5.82288ZM58.4313 47.269L57.2075 45.1458C57.126 45.0027 57.017 44.877 56.8867 44.7761C56.7564 44.6752 56.6075 44.601 56.4484 44.5579C56.2893 44.5147 56.1232 44.5034 55.9598 44.5246C55.7963 44.5459 55.6386 44.5992 55.4959 44.6815C55.3531 44.7639 55.228 44.8737 55.1279 45.0045C55.0278 45.1353 54.9545 45.2847 54.9124 45.4439C54.8703 45.6031 54.8601 45.7691 54.8824 45.9323C54.9047 46.0955 54.9591 46.2527 55.0425 46.3948L56.2613 48.5054C53.6882 49.8006 50.8764 50.5542 48 50.7197V48.2856C48 47.9544 47.8683 47.6367 47.6339 47.4025C47.3995 47.1683 47.0815 47.0367 46.75 47.0367C46.4185 47.0367 46.1005 47.1683 45.8661 47.4025C45.6317 47.6367 45.5 47.9544 45.5 48.2856V50.7197C42.624 50.5558 39.8122 49.8038 37.2388 48.5104L38.4575 46.3997C38.5409 46.2577 38.5953 46.1005 38.6176 45.9373C38.64 45.7741 38.6298 45.6081 38.5876 45.4489C38.5455 45.2897 38.4723 45.1403 38.3721 45.0095C38.272 44.8787 38.1469 44.7689 38.0042 44.6865C37.8614 44.6042 37.7038 44.5509 37.5403 44.5296C37.3768 44.5084 37.2107 44.5197 37.0516 44.5629C36.8926 44.606 36.7436 44.6802 36.6133 44.7811C36.483 44.882 36.374 45.0077 36.2925 45.1508L35.0688 47.274C32.6653 45.6857 30.6072 43.6294 29.0175 41.228L31.1425 40.0054C31.4273 39.8386 31.6344 39.566 31.7188 39.2472C31.8032 38.9283 31.7579 38.5891 31.5929 38.3035C31.4278 38.0179 31.1564 37.8091 30.8378 37.7227C30.5193 37.6363 30.1795 37.6793 29.8925 37.8423L27.78 39.0599C26.483 36.4876 25.7287 33.6765 25.5638 30.8009H28C28.3315 30.8009 28.6495 30.6694 28.8839 30.4352C29.1183 30.2009 29.25 29.8833 29.25 29.552C29.25 29.2208 29.1183 28.9031 28.8839 28.6689C28.6495 28.4347 28.3315 28.3031 28 28.3031H25.5638C25.7278 25.4296 26.4804 22.6203 27.775 20.0491L29.8875 21.2668C30.0297 21.3501 30.187 21.4045 30.3504 21.4268C30.5137 21.4491 30.6798 21.4389 30.8392 21.3968C30.9986 21.3547 31.148 21.2815 31.279 21.1815C31.4099 21.0814 31.5198 20.9565 31.6022 20.8139C31.6846 20.6712 31.738 20.5137 31.7593 20.3504C31.7805 20.1871 31.7692 20.0211 31.726 19.8622C31.6828 19.7032 31.6086 19.5544 31.5076 19.4242C31.4066 19.294 31.2808 19.1851 31.1375 19.1037L29.0125 17.881C30.6022 15.4797 32.6603 13.4234 35.0638 11.8351L36.2875 13.9582C36.4544 14.2427 36.7272 14.4497 37.0464 14.534C37.3655 14.6183 37.705 14.5731 37.9909 14.4082C38.2767 14.2433 38.4857 13.9721 38.5722 13.6538C38.6587 13.3356 38.6157 12.996 38.4525 12.7093L37.2338 10.5987C39.8084 9.30286 42.6219 8.54919 45.5 8.38438V10.8185C45.5 11.1497 45.6317 11.4674 45.8661 11.7016C46.1005 11.9358 46.4185 12.0674 46.75 12.0674C47.0815 12.0674 47.3995 11.9358 47.6339 11.7016C47.8683 11.4674 48 11.1497 48 10.8185V8.38438C50.8761 8.5483 53.6878 9.30026 56.2613 10.5937L55.0425 12.7043C54.9591 12.8464 54.9047 13.0036 54.8824 13.1668C54.8601 13.33 54.8703 13.4959 54.9124 13.6552C54.9545 13.8144 55.0278 13.9637 55.1279 14.0946C55.228 14.2254 55.3531 14.3352 55.4959 14.4175C55.6386 14.4999 55.7963 14.5532 55.9598 14.5744C56.1232 14.5957 56.2893 14.5844 56.4484 14.5412C56.6075 14.4981 56.7564 14.4239 56.8867 14.323C57.017 14.2221 57.126 14.0964 57.2075 13.9532L58.4313 11.8301C60.8347 13.4184 62.8928 15.4747 64.4825 17.876L62.3575 19.0987C62.2142 19.1801 62.0884 19.289 61.9874 19.4192C61.8864 19.5494 61.8122 19.6982 61.769 19.8572C61.7258 20.0161 61.7145 20.1821 61.7358 20.3454C61.757 20.5087 61.8104 20.6662 61.8928 20.8089C61.9752 20.9515 62.0851 21.0765 62.216 21.1765C62.347 21.2766 62.4965 21.3497 62.6558 21.3918C62.8152 21.4339 62.9813 21.4441 63.1447 21.4218C63.308 21.3995 63.4653 21.3451 63.6075 21.2618L65.72 20.0441C67.017 22.6165 67.7713 25.4276 67.9363 28.3031H65.5C65.1685 28.3031 64.8505 28.4347 64.6161 28.6689C64.3817 28.9031 64.25 29.2208 64.25 29.552C64.25 29.8833 64.3817 30.2009 64.6161 30.4352C64.8505 30.6694 65.1685 30.8009 65.5 30.8009H67.9363C67.7722 33.6745 67.0196 36.4838 65.725 39.0549L63.6125 37.8373C63.4703 37.754 63.313 37.6996 63.1497 37.6773C62.9863 37.655 62.8202 37.6652 62.6608 37.7073C62.5015 37.7494 62.352 37.8225 62.221 37.9226C62.0901 38.0226 61.9802 38.1476 61.8978 38.2902C61.8154 38.4328 61.762 38.5904 61.7408 38.7537C61.7195 38.917 61.7308 39.0829 61.774 39.2419C61.8172 39.4009 61.8914 39.5497 61.9924 39.6799C62.0934 39.81 62.2192 39.919 62.3625 40.0004L64.4875 41.223C62.8964 43.6249 60.8365 45.6812 58.4313 47.269Z" fill="#6984F0"/>
<path d="M49.5915 31.9699C49.9896 31.512 50.2692 30.9635 50.4056 30.3724C50.5421 29.7814 50.5313 29.166 50.3742 28.5801C50.2171 27.9942 49.9185 27.4558 49.5046 27.0121C49.0907 26.5684 48.5742 26.2329 48.0003 26.0351V14.5652C48.0003 14.234 47.8686 13.9163 47.6342 13.6821C47.3998 13.4479 47.0818 13.3163 46.7503 13.3163C46.4188 13.3163 46.1008 13.4479 45.8664 13.6821C45.632 13.9163 45.5003 14.234 45.5003 14.5652V26.0351C44.6669 26.3284 43.9644 26.9069 43.517 27.6681C43.0696 28.4294 42.9063 29.3242 43.0561 30.1942C43.2058 31.0642 43.6588 31.8532 44.335 32.4214C45.0111 32.9896 45.8668 33.3004 46.7503 33.2988C46.979 33.2969 47.2071 33.2739 47.4315 33.2301L50.6678 38.8289C50.8347 39.1134 51.1075 39.3204 51.4266 39.4047C51.7458 39.489 52.0853 39.4438 52.3712 39.2789C52.657 39.114 52.866 38.8428 52.9525 38.5245C53.039 38.2062 52.9959 37.8667 52.8328 37.58L49.5915 31.9699ZM45.5003 29.552C45.5003 29.305 45.5736 29.0636 45.711 28.8582C45.8483 28.6528 46.0435 28.4927 46.2719 28.3982C46.5004 28.3037 46.7517 28.279 46.9942 28.3271C47.2366 28.3753 47.4594 28.4943 47.6342 28.6689C47.809 28.8436 47.928 29.0661 47.9763 29.3084C48.0245 29.5507 47.9998 29.8018 47.9051 30.03C47.8105 30.2582 47.6503 30.4532 47.4448 30.5905C47.2392 30.7277 46.9975 30.801 46.7503 30.801C46.4188 30.801 46.1008 30.6694 45.8664 30.4352C45.632 30.2009 45.5003 29.8833 45.5003 29.552Z" fill="#6984F0"/>
<path d="M11.75 10.8188H21.75C22.0815 10.8188 22.3995 10.6872 22.6339 10.453C22.8683 10.2188 23 9.90112 23 9.56989C23 9.23866 22.8683 8.92099 22.6339 8.68678C22.3995 8.45256 22.0815 8.32098 21.75 8.32098H11.75C11.4185 8.32098 11.1005 8.45256 10.8661 8.68678C10.6317 8.92099 10.5 9.23866 10.5 9.56989C10.5 9.90112 10.6317 10.2188 10.8661 10.453C11.1005 10.6872 11.4185 10.8188 11.75 10.8188Z" fill="#6984F0"/>
<path d="M18 18.3122C18.3315 18.3122 18.6495 18.1806 18.8839 17.9464C19.1183 17.7122 19.25 17.3945 19.25 17.0633C19.25 16.7321 19.1183 16.4144 18.8839 16.1802C18.6495 15.946 18.3315 15.8144 18 15.8144H11.75C11.4185 15.8144 11.1005 15.946 10.8661 16.1802C10.6317 16.4144 10.5 16.7321 10.5 17.0633C10.5 17.3945 10.6317 17.7122 10.8661 17.9464C11.1005 18.1806 11.4185 18.3122 11.75 18.3122H18Z" fill="#6984F0"/>
<path d="M21.75 49.5351C21.75 49.2039 21.6183 48.8862 21.3839 48.652C21.1495 48.4178 20.8315 48.2862 20.5 48.2862H13C12.6685 48.2862 12.3505 48.4178 12.1161 48.652C11.8817 48.8862 11.75 49.2039 11.75 49.5351C11.75 49.8663 11.8817 50.184 12.1161 50.4182C12.3505 50.6524 12.6685 50.784 13 50.784H20.5C20.8315 50.784 21.1495 50.6524 21.3839 50.4182C21.6183 50.184 21.75 49.8663 21.75 49.5351Z" fill="#6984F0"/>
<path d="M8 18.3122H5.5C5.16848 18.3122 4.85054 18.1806 4.61612 17.9464C4.3817 17.7122 4.25 17.3945 4.25 17.0633C4.25 16.7321 4.3817 16.4144 4.61612 16.1802C4.85054 15.946 5.16848 15.8144 5.5 15.8144H8C8.33152 15.8144 8.64946 15.946 8.88388 16.1802C9.1183 16.4144 9.25 16.7321 9.25 17.0633C9.25 17.3945 9.1183 17.7122 8.88388 17.9464C8.64946 18.1806 8.33152 18.3122 8 18.3122Z" fill="#6984F0"/>
</svg>
