<svg width="68" height="44" viewBox="0 0 68 44" fill="none" xmlns="http://www.w3.org/2000/svg">
<path d="M53.6914 29.8904C52.3569 27.1081 47.5827 23.2462 42.9701 19.5147C40.3974 17.435 37.9664 15.4687 36.4166 13.9189C36.0284 13.5279 35.4476 13.4032 34.9348 13.5874C33.98 13.9331 33.3906 14.1994 32.926 14.4062C32.2177 14.7235 31.9797 14.8312 31.0248 14.9275C30.6026 14.97 30.223 15.1967 29.9878 15.548C27.9846 18.5427 25.9106 18.2877 24.5251 17.8232C24.0831 17.6759 24.0038 17.486 23.9613 17.3047C23.6638 16.0609 25.157 13.1652 27.0921 11.23C31.6963 6.62296 34.0706 5.46975 39.0856 7.71096C44.7749 10.2552 50.4756 12.2472 50.5323 12.267C51.2775 12.5247 52.0793 12.1337 52.3371 11.3942C52.5921 10.6547 52.2039 9.84725 51.4644 9.58946C51.4077 9.56967 45.8204 7.61746 40.2444 5.12125C33.7476 2.21704 30.1832 4.12954 25.0917 9.22396C23.1537 11.162 20.5214 15.0832 21.2014 17.9592C21.4932 19.1832 22.3547 20.0899 23.6352 20.512C26.8454 21.5717 29.775 20.5573 31.9567 17.6617C32.8577 17.5229 33.3479 17.3189 34.0845 16.9874C34.3508 16.8684 34.6625 16.7296 35.0762 16.5624C36.6969 18.0839 38.8842 19.8547 41.1877 21.7162C45.3527 25.085 50.076 28.9044 51.1385 31.1144C51.6627 32.2052 51.0987 32.9164 50.7162 33.2422C50.1552 33.7239 49.3875 33.8769 48.971 33.585C48.5119 33.2705 47.9142 33.2507 47.4409 33.534C46.9649 33.8172 46.6987 34.3528 46.7582 34.9025C46.8544 35.8035 46.0299 36.3192 45.6729 36.4977C44.7662 36.9567 43.8199 36.8774 43.4657 36.5487C43.069 36.1804 42.4995 36.0727 41.9952 36.2597C41.4909 36.4495 41.1395 36.9142 41.0885 37.4525C41.0035 38.3817 40.315 39.2743 39.4168 39.6228C38.9833 39.787 38.3543 39.8863 37.7905 39.3705C37.4392 39.0533 36.9518 38.9313 36.4957 39.0418C36.0339 39.1551 35.6627 39.4895 35.5012 39.9343C35.4474 40.076 35.3255 40.416 33.9995 40.416C33.056 40.416 31.3588 39.7785 30.5287 39.2288C29.5342 38.5743 23.298 33.922 17.9119 29.4113C17.1554 28.7738 15.8464 27.4081 14.6904 26.2011C13.6647 25.1301 12.7269 24.1583 12.2452 23.7503C11.6417 23.2403 10.7492 23.3168 10.2477 23.9175C9.74344 24.5153 9.81702 25.4107 10.4149 25.915C10.8542 26.2862 11.7042 27.1843 12.6419 28.1618C13.9057 29.4821 15.2117 30.8478 16.0902 31.5845C21.3659 36.0017 27.7069 40.7703 28.9704 41.6003C30.0132 42.286 32.2599 43.2493 33.9997 43.2493C35.3964 43.2493 36.4704 42.9291 37.2154 42.303C38.2127 42.6913 39.3462 42.694 40.4369 42.269C41.7262 41.7703 42.7857 40.7645 43.3864 39.5463C44.5027 39.7843 45.7807 39.617 46.9422 39.0335C48.0784 38.4612 48.9 37.5857 49.308 36.5627C50.4357 36.6222 51.5973 36.2228 52.5578 35.3983C54.1844 34.0072 54.632 31.8426 53.6914 29.8904Z" fill="#6984F0"/>
<path d="M28.3337 6.41617H15.5837C14.8017 6.41617 14.167 7.05088 14.167 7.83288C14.167 8.61488 14.8017 9.24959 15.5837 9.24959H28.3337C29.1157 9.24959 29.7504 8.61488 29.7504 7.83288C29.7504 7.05088 29.1157 6.41617 28.3337 6.41617Z" fill="#6984F0"/>
<path d="M57.8422 26.8757C57.403 26.2269 56.5247 26.0484 55.876 26.4904L51.7337 29.2727C51.0849 29.709 50.912 30.5902 51.3484 31.2389C51.6232 31.6442 52.0709 31.8652 52.5271 31.8652C52.7963 31.8652 53.0711 31.7887 53.3148 31.6244L57.4571 28.8421C58.1057 28.4057 58.2785 27.5246 57.8422 26.8757Z" fill="#6984F0"/>
<path d="M49.0477 33.6361C48.0334 32.8371 43.4972 28.1933 40.6922 25.2693C40.151 24.7026 39.2529 24.6828 38.689 25.2268C38.1223 25.768 38.1053 26.6661 38.6465 27.23C39.3747 27.9893 45.7978 34.6845 47.291 35.8632C47.5488 36.0672 47.8605 36.1664 48.1665 36.1664C48.583 36.1664 48.9995 35.9794 49.2828 35.6252C49.7674 35.0131 49.6626 34.1206 49.0477 33.6361Z" fill="#6984F0"/>
<path d="M43.3871 36.4779C41.6899 35.1207 37.4258 30.5902 36.4624 29.5419C35.9297 28.9639 35.0372 28.9299 34.4592 29.4569C33.884 29.9867 33.8444 30.8849 34.3742 31.4601C34.4252 31.5139 39.5139 37.0078 41.6162 38.6908C41.8769 38.8976 42.1914 38.9996 42.5002 38.9996C42.9139 38.9996 43.3275 38.8154 43.608 38.4698C44.0955 37.8577 43.9963 36.9652 43.3871 36.4779Z" fill="#6984F0"/>
<path d="M37.7488 39.3311C35.7286 37.6283 31.5948 33.2281 30.7873 32.3639C30.2518 31.7916 29.3536 31.7604 28.7841 32.2959C28.2118 32.8314 28.1834 33.7267 28.7161 34.2991C29.8778 35.5429 33.8331 39.7363 35.9213 41.4986C36.1876 41.7224 36.5106 41.8329 36.8336 41.8329C37.2359 41.8329 37.6383 41.6601 37.9188 41.3286C38.4231 40.7279 38.3466 39.8354 37.7488 39.3311Z" fill="#6984F0"/>
<path d="M16.558 3.97109C14.1298 1.67038 4.42 0.925173 1.50171 0.752384C1.09942 0.732595 0.728211 0.865673 0.444922 1.13488C0.1615 1.40117 0 1.77517 0 2.16617V27.6662C0 28.4482 0.634711 29.0829 1.41671 29.0829H9.91671C10.5287 29.0829 11.0727 28.6891 11.2625 28.1054C11.4693 27.4707 16.3512 12.4881 16.9943 5.12138C17.0312 4.69067 16.8725 4.26567 16.558 3.97109ZM8.8825 26.2496H2.83329V3.68488C7.3865 4.04467 12.2995 4.82667 14.0845 5.69367C13.3337 11.8987 9.9365 22.9232 8.8825 26.2496Z" fill="#6984F0"/>
<path d="M66.583 3.58289C55.4593 3.58289 49.2883 6.43039 49.0305 6.54939C48.6622 6.72217 48.3873 7.04239 48.274 7.4306C48.1607 7.81881 48.2173 8.23531 48.4298 8.58089C50.1808 11.4001 55.6633 27.0571 56.7173 30.8764C56.8873 31.4912 57.4455 31.9162 58.083 31.9162H66.583C67.365 31.9162 67.9997 31.2815 67.9997 30.4995V4.99946C67.9997 4.21467 67.365 3.58289 66.583 3.58289ZM65.1664 29.0829H59.1427C57.7997 24.7082 53.833 13.3012 51.6202 8.5866C53.782 7.85281 58.4259 6.59189 65.1664 6.43331V29.0829Z" fill="#6984F0"/>
</svg>
