<svg width="46" height="54" viewBox="0 0 46 54" fill="none" xmlns="http://www.w3.org/2000/svg">
<path d="M35.2959 23.5489H15.3785V14.4361C15.3785 13.0955 15.9075 11.8381 16.868 10.8959C17.8279 9.95403 19.0947 9.45496 20.4376 9.47468C23.1207 9.52552 25.3035 11.7988 25.3035 14.542V15.2933C25.3035 17.9052 27.4284 20.0301 30.0403 20.0301C32.6522 20.0301 34.7771 17.9051 34.7771 15.2933V14.4361C34.7771 10.5592 33.2561 6.9177 30.4944 4.18268C27.7674 1.48194 24.1674 0 20.3426 0C20.2949 0 20.2467 0.000316406 20.1988 0.000632813C12.3172 0.0769922 5.9048 6.62766 5.9048 14.6029V23.5489H5.386C2.81151 23.5489 0.716797 25.6435 0.716797 28.2181V49.3308C0.716902 51.9054 2.81151 54 5.38611 54H35.2959C37.8704 54 39.9651 51.9054 39.9651 49.3308V28.2181C39.965 25.6435 37.8704 23.5489 35.2959 23.5489ZM8.61155 14.6029C8.61155 8.1057 13.8213 2.76929 20.2249 2.70717C20.264 2.70686 20.3028 2.70664 20.3417 2.70664C23.4484 2.70664 26.3735 3.9112 28.5897 6.1058C30.8341 8.32855 32.0701 11.2869 32.0701 14.436V15.2933C32.0701 16.4126 31.1594 17.3233 30.0401 17.3233C28.9207 17.3233 28.01 16.4126 28.01 15.2933V14.542C28.01 10.3343 24.6358 6.84714 20.4887 6.76846C18.4104 6.72848 16.4549 7.50874 14.9722 8.96379C13.4887 10.4195 12.6717 12.3628 12.6717 14.4364V23.549H8.61155V14.6029ZM37.2582 49.3308C37.2582 50.4128 36.3779 51.2933 35.2958 51.2933H5.38611C4.30411 51.2933 3.42365 50.4129 3.42365 49.3308V28.2181C3.42365 27.1361 4.304 26.2556 5.38611 26.2556H35.2959C36.3779 26.2556 37.2583 27.136 37.2583 28.2181V49.3308H37.2582Z" fill="#6984F0"/>
<path d="M20.341 28.9173C17.0078 28.9173 14.2959 31.6291 14.2959 34.9624C14.2959 36.6741 15.0269 38.3002 16.2809 39.4391V47.2782C16.2809 48.0255 16.8868 48.6315 17.6343 48.6315H23.0478C23.7953 48.6315 24.4012 48.0255 24.4012 47.2782V39.4391C25.6552 38.3002 26.3862 36.6741 26.3862 34.9624C26.3861 31.6291 23.6743 28.9173 20.341 28.9173ZM22.2658 37.6888C21.9075 37.9426 21.6944 38.3544 21.6944 38.7935V45.9248H18.9877V38.7935C18.9877 38.3544 18.7746 37.9426 18.4162 37.6888C17.5311 37.0622 17.0028 36.0431 17.0028 34.9623C17.0028 33.1215 18.5003 31.624 20.3412 31.624C22.182 31.624 23.6796 33.1215 23.6796 34.9623C23.6793 36.043 23.1509 37.0622 22.2658 37.6888Z" fill="#6984F0"/>
<path d="M44.6073 22.8167L39.8799 20.0874C39.2328 19.7137 38.4051 19.9354 38.0312 20.5828C37.6574 21.2301 37.8792 22.0576 38.5266 22.4315L43.2539 25.1608C43.467 25.2838 43.6997 25.3425 43.9293 25.3425C44.3971 25.3425 44.852 25.0997 45.1025 24.6655C45.4764 24.0181 45.2545 23.1905 44.6073 22.8167Z" fill="#6984F0"/>
<path d="M39.2045 17.1994C39.434 17.1994 39.6668 17.1408 39.8799 17.0178L44.6073 14.2886C45.2546 13.9149 45.4764 13.0872 45.1026 12.4398C44.729 11.7925 43.9011 11.5706 43.2539 11.9444L38.5266 14.6737C37.8792 15.0473 37.6574 15.8751 38.0312 16.5224C38.2819 16.9566 38.7368 17.1994 39.2045 17.1994Z" fill="#6984F0"/>
</svg>
